<?xml version="1.0" standalone="no"?>
<!DOCTYPE svg PUBLIC "-//W3C//DTD SVG 20010904//EN"
 "http://www.w3.org/TR/2001/REC-SVG-20010904/DTD/svg10.dtd">
<svg version="1.0" xmlns="http://www.w3.org/2000/svg"
 width="70.000000pt" height="70.000000pt" viewBox="0 0 70.000000 70.000000"
 preserveAspectRatio="xMidYMid meet">
<metadata>
Created by potrace 1.11, written by Peter Selinger 2001-2013
</metadata>
<g transform="translate(0.000000,70.000000) scale(0.100000,-0.100000)"
fill="#000000" stroke="none">
<path d="M211 378 c-57 -150 -106 -279 -109 -285 -3 -9 8 -13 36 -13 34 0 41
3 46 25 4 14 16 50 27 80 l20 55 118 0 117 0 29 -80 30 -80 38 0 c32 0 37 3
33 18 -4 9 -52 136 -109 282 l-102 265 -35 3 -35 3 -104 -273z m188 44 c22
-63 41 -115 41 -118 0 -2 -40 -4 -90 -4 -49 0 -90 4 -90 9 0 24 84 241 90 234
4 -4 26 -59 49 -121z"/>
</g>
</svg>
